<mxfile host="app.diagrams.net" modified="2022-02-22T15:56:03.695Z" agent="5.0 (Windows NT 10.0; Win64; x64) AppleWebKit/537.36 (KHTML, like Gecko) Chrome/89.0.4389.90 Safari/537.36 Edg/89.0.774.57" etag="Ry1Alr2Z-ms1rDpcKEP6" version="14.6.13" type="github">
  <diagram id="s8txGnkgz6SELEgoIqqw" name="Page-1">
    <mxGraphModel dx="870" dy="547" grid="1" gridSize="10" guides="1" tooltips="1" connect="1" arrows="1" fold="1" page="1" pageScale="1" pageWidth="827" pageHeight="1169" math="0" shadow="0">
      <root>
        <mxCell id="0" />
        <mxCell id="1" parent="0" />
        <mxCell id="5HBmjs66gt0dZpD1Jy-z-1" value="" style="shape=table;html=1;whiteSpace=wrap;startSize=0;container=1;collapsible=0;childLayout=tableLayout;fontStyle=1;fontSize=15;" vertex="1" parent="1">
          <mxGeometry x="240" y="160" width="200" height="200" as="geometry" />
        </mxCell>
        <mxCell id="5HBmjs66gt0dZpD1Jy-z-2" value="" style="shape=partialRectangle;html=1;whiteSpace=wrap;collapsible=0;dropTarget=0;pointerEvents=0;fillColor=none;top=0;left=0;bottom=0;right=0;points=[[0,0.5],[1,0.5]];portConstraint=eastwest;fontStyle=1;fontSize=15;" vertex="1" parent="5HBmjs66gt0dZpD1Jy-z-1">
          <mxGeometry width="200" height="40" as="geometry" />
        </mxCell>
        <mxCell id="5HBmjs66gt0dZpD1Jy-z-3" value="0" style="shape=partialRectangle;html=1;whiteSpace=wrap;connectable=0;overflow=hidden;fillColor=#d5e8d4;top=1;left=1;bottom=1;right=1;fontStyle=1;fontSize=15;" vertex="1" parent="5HBmjs66gt0dZpD1Jy-z-2">
          <mxGeometry width="40" height="40" as="geometry" />
        </mxCell>
        <mxCell id="5HBmjs66gt0dZpD1Jy-z-4" value="0" style="shape=partialRectangle;html=1;whiteSpace=wrap;connectable=0;overflow=hidden;fillColor=#d5e8d4;top=1;left=1;bottom=1;right=1;fontStyle=1;fontSize=15;" vertex="1" parent="5HBmjs66gt0dZpD1Jy-z-2">
          <mxGeometry x="40" width="40" height="40" as="geometry" />
        </mxCell>
        <mxCell id="5HBmjs66gt0dZpD1Jy-z-5" value="0" style="shape=partialRectangle;html=1;whiteSpace=wrap;connectable=0;overflow=hidden;fillColor=#fff2cc;top=1;left=1;bottom=1;right=1;fontStyle=1;fontSize=15;" vertex="1" parent="5HBmjs66gt0dZpD1Jy-z-2">
          <mxGeometry x="80" width="40" height="40" as="geometry" />
        </mxCell>
        <mxCell id="5HBmjs66gt0dZpD1Jy-z-6" value="0" style="shape=partialRectangle;html=1;whiteSpace=wrap;connectable=0;overflow=hidden;fillColor=#fff2cc;top=1;left=1;bottom=1;right=1;fontStyle=1;fontSize=15;" vertex="1" parent="5HBmjs66gt0dZpD1Jy-z-2">
          <mxGeometry x="120" width="40" height="40" as="geometry" />
        </mxCell>
        <mxCell id="5HBmjs66gt0dZpD1Jy-z-7" value="0" style="shape=partialRectangle;html=1;whiteSpace=wrap;connectable=0;overflow=hidden;fillColor=#fff2cc;top=1;left=1;bottom=1;right=1;fontStyle=1;fontSize=15;" vertex="1" parent="5HBmjs66gt0dZpD1Jy-z-2">
          <mxGeometry x="160" width="40" height="40" as="geometry" />
        </mxCell>
        <mxCell id="5HBmjs66gt0dZpD1Jy-z-8" value="" style="shape=partialRectangle;html=1;whiteSpace=wrap;collapsible=0;dropTarget=0;pointerEvents=0;fillColor=none;top=0;left=0;bottom=0;right=0;points=[[0,0.5],[1,0.5]];portConstraint=eastwest;fontStyle=1;fontSize=15;" vertex="1" parent="5HBmjs66gt0dZpD1Jy-z-1">
          <mxGeometry y="40" width="200" height="40" as="geometry" />
        </mxCell>
        <mxCell id="5HBmjs66gt0dZpD1Jy-z-9" value="0" style="shape=partialRectangle;html=1;whiteSpace=wrap;connectable=0;overflow=hidden;fillColor=#d5e8d4;top=1;left=1;bottom=1;right=1;fontStyle=1;fontSize=15;" vertex="1" parent="5HBmjs66gt0dZpD1Jy-z-8">
          <mxGeometry width="40" height="40" as="geometry" />
        </mxCell>
        <mxCell id="5HBmjs66gt0dZpD1Jy-z-10" value="" style="shape=partialRectangle;html=1;whiteSpace=wrap;connectable=0;overflow=hidden;fillColor=#d5e8d4;top=1;left=1;bottom=1;right=1;fontStyle=1;fontSize=15;" vertex="1" parent="5HBmjs66gt0dZpD1Jy-z-8">
          <mxGeometry x="40" width="40" height="40" as="geometry" />
        </mxCell>
        <mxCell id="5HBmjs66gt0dZpD1Jy-z-11" value="" style="shape=partialRectangle;html=1;whiteSpace=wrap;connectable=0;overflow=hidden;fillColor=none;top=0;left=0;bottom=0;right=0;fontStyle=1;fontSize=15;" vertex="1" parent="5HBmjs66gt0dZpD1Jy-z-8">
          <mxGeometry x="80" width="40" height="40" as="geometry" />
        </mxCell>
        <mxCell id="5HBmjs66gt0dZpD1Jy-z-12" value="" style="shape=partialRectangle;html=1;whiteSpace=wrap;connectable=0;overflow=hidden;fillColor=none;top=0;left=0;bottom=0;right=0;fontStyle=1;fontSize=15;" vertex="1" parent="5HBmjs66gt0dZpD1Jy-z-8">
          <mxGeometry x="120" width="40" height="40" as="geometry" />
        </mxCell>
        <mxCell id="5HBmjs66gt0dZpD1Jy-z-13" value="0" style="shape=partialRectangle;html=1;whiteSpace=wrap;connectable=0;overflow=hidden;fillColor=#fff2cc;top=1;left=1;bottom=1;right=1;fontStyle=1;fontSize=15;" vertex="1" parent="5HBmjs66gt0dZpD1Jy-z-8">
          <mxGeometry x="160" width="40" height="40" as="geometry" />
        </mxCell>
        <mxCell id="5HBmjs66gt0dZpD1Jy-z-14" value="" style="shape=partialRectangle;html=1;whiteSpace=wrap;collapsible=0;dropTarget=0;pointerEvents=0;fillColor=none;top=0;left=0;bottom=0;right=0;points=[[0,0.5],[1,0.5]];portConstraint=eastwest;fontStyle=1;fontSize=15;" vertex="1" parent="5HBmjs66gt0dZpD1Jy-z-1">
          <mxGeometry y="80" width="200" height="40" as="geometry" />
        </mxCell>
        <mxCell id="5HBmjs66gt0dZpD1Jy-z-15" value="0" style="shape=partialRectangle;html=1;whiteSpace=wrap;connectable=0;overflow=hidden;fillColor=#fff2cc;top=1;left=1;bottom=1;right=1;fontStyle=1;fontSize=15;" vertex="1" parent="5HBmjs66gt0dZpD1Jy-z-14">
          <mxGeometry width="40" height="40" as="geometry" />
        </mxCell>
        <mxCell id="5HBmjs66gt0dZpD1Jy-z-16" value="" style="shape=partialRectangle;html=1;whiteSpace=wrap;connectable=0;overflow=hidden;fillColor=none;top=0;left=0;bottom=0;right=0;fontStyle=1;fontSize=15;" vertex="1" parent="5HBmjs66gt0dZpD1Jy-z-14">
          <mxGeometry x="40" width="40" height="40" as="geometry" />
        </mxCell>
        <mxCell id="5HBmjs66gt0dZpD1Jy-z-17" value="" style="shape=partialRectangle;html=1;whiteSpace=wrap;connectable=0;overflow=hidden;fillColor=none;top=0;left=0;bottom=0;right=0;fontStyle=1;fontSize=15;" vertex="1" parent="5HBmjs66gt0dZpD1Jy-z-14">
          <mxGeometry x="80" width="40" height="40" as="geometry" />
        </mxCell>
        <mxCell id="5HBmjs66gt0dZpD1Jy-z-18" value="" style="shape=partialRectangle;html=1;whiteSpace=wrap;connectable=0;overflow=hidden;fillColor=none;top=0;left=0;bottom=0;right=0;fontStyle=1;fontSize=15;" vertex="1" parent="5HBmjs66gt0dZpD1Jy-z-14">
          <mxGeometry x="120" width="40" height="40" as="geometry" />
        </mxCell>
        <mxCell id="5HBmjs66gt0dZpD1Jy-z-19" value="0" style="shape=partialRectangle;html=1;whiteSpace=wrap;connectable=0;overflow=hidden;fillColor=#fff2cc;top=1;left=1;bottom=1;right=1;fontStyle=1;fontSize=15;" vertex="1" parent="5HBmjs66gt0dZpD1Jy-z-14">
          <mxGeometry x="160" width="40" height="40" as="geometry" />
        </mxCell>
        <mxCell id="5HBmjs66gt0dZpD1Jy-z-101" value="" style="shape=partialRectangle;html=1;whiteSpace=wrap;collapsible=0;dropTarget=0;pointerEvents=0;fillColor=none;top=0;left=0;bottom=0;right=0;points=[[0,0.5],[1,0.5]];portConstraint=eastwest;fontStyle=1;fontSize=15;" vertex="1" parent="5HBmjs66gt0dZpD1Jy-z-1">
          <mxGeometry y="120" width="200" height="40" as="geometry" />
        </mxCell>
        <mxCell id="5HBmjs66gt0dZpD1Jy-z-102" value="0" style="shape=partialRectangle;html=1;whiteSpace=wrap;connectable=0;overflow=hidden;fillColor=#fff2cc;top=1;left=1;bottom=1;right=1;fontStyle=1;fontSize=15;" vertex="1" parent="5HBmjs66gt0dZpD1Jy-z-101">
          <mxGeometry width="40" height="40" as="geometry" />
        </mxCell>
        <mxCell id="5HBmjs66gt0dZpD1Jy-z-103" value="" style="shape=partialRectangle;html=1;whiteSpace=wrap;connectable=0;overflow=hidden;fillColor=none;top=0;left=0;bottom=0;right=0;fontStyle=1;fontSize=15;" vertex="1" parent="5HBmjs66gt0dZpD1Jy-z-101">
          <mxGeometry x="40" width="40" height="40" as="geometry" />
        </mxCell>
        <mxCell id="5HBmjs66gt0dZpD1Jy-z-104" value="" style="shape=partialRectangle;html=1;whiteSpace=wrap;connectable=0;overflow=hidden;fillColor=none;top=0;left=0;bottom=0;right=0;fontStyle=1;fontSize=15;" vertex="1" parent="5HBmjs66gt0dZpD1Jy-z-101">
          <mxGeometry x="80" width="40" height="40" as="geometry" />
        </mxCell>
        <mxCell id="5HBmjs66gt0dZpD1Jy-z-105" value="" style="shape=partialRectangle;html=1;whiteSpace=wrap;connectable=0;overflow=hidden;fillColor=none;top=0;left=0;bottom=0;right=0;fontStyle=1;fontSize=15;" vertex="1" parent="5HBmjs66gt0dZpD1Jy-z-101">
          <mxGeometry x="120" width="40" height="40" as="geometry" />
        </mxCell>
        <mxCell id="5HBmjs66gt0dZpD1Jy-z-106" value="0" style="shape=partialRectangle;html=1;whiteSpace=wrap;connectable=0;overflow=hidden;fillColor=#fff2cc;top=1;left=1;bottom=1;right=1;fontStyle=1;fontSize=15;" vertex="1" parent="5HBmjs66gt0dZpD1Jy-z-101">
          <mxGeometry x="160" width="40" height="40" as="geometry" />
        </mxCell>
        <mxCell id="5HBmjs66gt0dZpD1Jy-z-20" value="" style="shape=partialRectangle;html=1;whiteSpace=wrap;collapsible=0;dropTarget=0;pointerEvents=0;fillColor=none;top=0;left=0;bottom=0;right=0;points=[[0,0.5],[1,0.5]];portConstraint=eastwest;fontStyle=1;fontSize=15;" vertex="1" parent="5HBmjs66gt0dZpD1Jy-z-1">
          <mxGeometry y="160" width="200" height="40" as="geometry" />
        </mxCell>
        <mxCell id="5HBmjs66gt0dZpD1Jy-z-21" value="0" style="shape=partialRectangle;html=1;whiteSpace=wrap;connectable=0;overflow=hidden;fillColor=#fff2cc;top=1;left=1;bottom=1;right=1;fontStyle=1;fontSize=15;" vertex="1" parent="5HBmjs66gt0dZpD1Jy-z-20">
          <mxGeometry width="40" height="40" as="geometry" />
        </mxCell>
        <mxCell id="5HBmjs66gt0dZpD1Jy-z-22" value="0" style="shape=partialRectangle;html=1;whiteSpace=wrap;connectable=0;overflow=hidden;fillColor=#fff2cc;top=1;left=1;bottom=1;right=1;fontStyle=1;fontSize=15;" vertex="1" parent="5HBmjs66gt0dZpD1Jy-z-20">
          <mxGeometry x="40" width="40" height="40" as="geometry" />
        </mxCell>
        <mxCell id="5HBmjs66gt0dZpD1Jy-z-23" value="0" style="shape=partialRectangle;html=1;whiteSpace=wrap;connectable=0;overflow=hidden;fillColor=#fff2cc;top=1;left=1;bottom=1;right=1;fontStyle=1;fontSize=15;" vertex="1" parent="5HBmjs66gt0dZpD1Jy-z-20">
          <mxGeometry x="80" width="40" height="40" as="geometry" />
        </mxCell>
        <mxCell id="5HBmjs66gt0dZpD1Jy-z-24" value="0" style="shape=partialRectangle;html=1;whiteSpace=wrap;connectable=0;overflow=hidden;fillColor=#fff2cc;top=1;left=1;bottom=1;right=1;fontStyle=1;fontSize=15;" vertex="1" parent="5HBmjs66gt0dZpD1Jy-z-20">
          <mxGeometry x="120" width="40" height="40" as="geometry" />
        </mxCell>
        <mxCell id="5HBmjs66gt0dZpD1Jy-z-25" value="0" style="shape=partialRectangle;html=1;whiteSpace=wrap;connectable=0;overflow=hidden;fillColor=#fff2cc;top=1;left=1;bottom=1;right=1;fontStyle=1;fontSize=15;" vertex="1" parent="5HBmjs66gt0dZpD1Jy-z-20">
          <mxGeometry x="160" width="40" height="40" as="geometry" />
        </mxCell>
        <mxCell id="5HBmjs66gt0dZpD1Jy-z-92" value="" style="shape=table;html=1;whiteSpace=wrap;startSize=0;container=1;collapsible=0;childLayout=tableLayout;fillColor=#d5e8d4;strokeColor=#82b366;" vertex="1" parent="1">
          <mxGeometry x="80" y="160" width="80" height="80" as="geometry" />
        </mxCell>
        <mxCell id="5HBmjs66gt0dZpD1Jy-z-93" value="" style="shape=partialRectangle;html=1;whiteSpace=wrap;collapsible=0;dropTarget=0;pointerEvents=0;fillColor=#d5e8d4;top=0;left=0;bottom=0;right=0;points=[[0,0.5],[1,0.5]];portConstraint=eastwest;strokeColor=#82b366;" vertex="1" parent="5HBmjs66gt0dZpD1Jy-z-92">
          <mxGeometry width="80" height="40" as="geometry" />
        </mxCell>
        <mxCell id="5HBmjs66gt0dZpD1Jy-z-94" value="" style="shape=partialRectangle;html=1;whiteSpace=wrap;connectable=0;overflow=hidden;fillColor=#d5e8d4;top=1;left=1;bottom=1;right=1;" vertex="1" parent="5HBmjs66gt0dZpD1Jy-z-93">
          <mxGeometry width="40" height="40" as="geometry" />
        </mxCell>
        <mxCell id="5HBmjs66gt0dZpD1Jy-z-95" value="" style="shape=partialRectangle;html=1;whiteSpace=wrap;connectable=0;overflow=hidden;fillColor=#d5e8d4;top=1;left=1;bottom=1;right=1;" vertex="1" parent="5HBmjs66gt0dZpD1Jy-z-93">
          <mxGeometry x="40" width="40" height="40" as="geometry" />
        </mxCell>
        <mxCell id="5HBmjs66gt0dZpD1Jy-z-96" value="" style="shape=partialRectangle;html=1;whiteSpace=wrap;collapsible=0;dropTarget=0;pointerEvents=0;fillColor=#d5e8d4;top=0;left=0;bottom=0;right=0;points=[[0,0.5],[1,0.5]];portConstraint=eastwest;strokeColor=#82b366;" vertex="1" parent="5HBmjs66gt0dZpD1Jy-z-92">
          <mxGeometry y="40" width="80" height="40" as="geometry" />
        </mxCell>
        <mxCell id="5HBmjs66gt0dZpD1Jy-z-97" value="" style="shape=partialRectangle;html=1;whiteSpace=wrap;connectable=0;overflow=hidden;fillColor=#d5e8d4;top=1;left=1;bottom=1;right=1;" vertex="1" parent="5HBmjs66gt0dZpD1Jy-z-96">
          <mxGeometry width="40" height="40" as="geometry" />
        </mxCell>
        <mxCell id="5HBmjs66gt0dZpD1Jy-z-98" value="" style="shape=partialRectangle;html=1;whiteSpace=wrap;connectable=0;overflow=hidden;fillColor=#d5e8d4;top=1;left=1;bottom=1;right=1;" vertex="1" parent="5HBmjs66gt0dZpD1Jy-z-96">
          <mxGeometry x="40" width="40" height="40" as="geometry" />
        </mxCell>
        <mxCell id="5HBmjs66gt0dZpD1Jy-z-100" value="&lt;b&gt;Kernel&lt;/b&gt;" style="text;html=1;align=center;verticalAlign=middle;resizable=0;points=[];autosize=1;strokeColor=none;fontSize=15;" vertex="1" parent="1">
          <mxGeometry x="90" y="250" width="60" height="20" as="geometry" />
        </mxCell>
        <mxCell id="5HBmjs66gt0dZpD1Jy-z-107" style="edgeStyle=orthogonalEdgeStyle;rounded=0;orthogonalLoop=1;jettySize=auto;html=1;exitX=1.013;exitY=0.05;exitDx=0;exitDy=0;entryX=0.003;entryY=0.038;entryDx=0;entryDy=0;fontSize=15;entryPerimeter=0;exitPerimeter=0;strokeWidth=2;" edge="1" parent="1" source="5HBmjs66gt0dZpD1Jy-z-96" target="5HBmjs66gt0dZpD1Jy-z-8">
          <mxGeometry relative="1" as="geometry" />
        </mxCell>
      </root>
    </mxGraphModel>
  </diagram>
</mxfile>
